<svg width="92" height="22" viewBox="0 0 92 22" fill="none" xmlns="http://www.w3.org/2000/svg">
<path d="M37.86 18.9301V16.2799C37.86 13.7708 35.826 11.7367 33.3168 11.7367V11.7367C30.8077 11.7367 28.7736 13.7708 28.7736 16.2799V18.9301" stroke="black" stroke-width="2.2716" stroke-linecap="round"/>
<path d="M74.5843 18.9301V16.2799C74.5843 13.7708 72.5502 11.7367 70.0411 11.7367V11.7367C67.5319 11.7367 65.4979 13.7708 65.4979 16.2799V18.9301" stroke="black" stroke-width="2.2716" stroke-linecap="round"/>
<path d="M12.8724 14.0084V11.3582C12.8724 8.84901 10.8383 6.81494 8.32916 6.81494V6.81494C5.82001 6.81494 3.78595 8.849 3.78595 11.3581L3.78595 14.0084" stroke="#0094FF" stroke-width="2.2716" stroke-linecap="round"/>
<path d="M8.27197 11.5474V12.8725C8.27197 16.218 10.9841 18.9301 14.3296 18.9301V18.9301C17.6751 18.9301 20.3872 16.218 20.3872 12.8725V10.7902C20.3872 7.86282 18.0141 5.48975 15.0868 5.48975V5.48975" stroke="#0094FF" stroke-width="2.2716" stroke-linecap="round"/>
<circle cx="16.6583" cy="11.5475" r="1.1358" fill="#0094FF"/>
<circle cx="45.4322" cy="15.1441" r="1.1358" fill="black"/>
<circle cx="61.7119" cy="8.7077" r="1.1358" fill="black"/>
<circle cx="45.4321" cy="15.1439" r="3.78601" stroke="black" stroke-width="2.2716"/>
<path d="M53.1934 5.30029V14.3867C53.1934 16.8959 55.2275 18.9299 57.7366 18.9299H58.1152" stroke="black" stroke-width="2.2716" stroke-linecap="round"/>
<path d="M61.7119 11.7367V18.9301" stroke="black" stroke-width="2.2716" stroke-linecap="round"/>
<path d="M78.3704 5.30029V14.3867M78.3704 18.9299V14.3867M78.3704 14.3867C78.3704 14.3867 80.9086 14.3867 82.535 14.3867M82.535 14.3867C83.7178 12.6864 85.5638 10.0328 85.5638 10.0328M82.535 14.3867C83.7178 16.1609 85.5638 18.9299 85.5638 18.9299" stroke="black" stroke-width="2.2716" stroke-linecap="round"/>
</svg>
